<?xml version="1.0" encoding="UTF-8"?><svg id="a" xmlns="http://www.w3.org/2000/svg" xmlns:xlink="http://www.w3.org/1999/xlink" viewBox="0 0 227.54 156.94"><defs><style>.k{fill:#ddb73c;stroke-width:2px;}.k,.l{stroke:#0e1a0f;stroke-miterlimit:10;}.l{stroke-width:.5px;}.l,.m{fill:#0e1a0f;}.m,.n,.o,.p,.q,.r,.s,.t,.u,.v{stroke-width:0px;}.n{fill:url(#b);}.o{fill:url(#c);}.p{fill:url(#e);}.q{fill:url(#f);}.r{fill:url(#d);}.s{fill:url(#j);}.t{fill:url(#i);}.u{fill:url(#h);}.v{fill:url(#g);}</style><linearGradient id="b" x1="87.28" y1="147.6" x2="62.79" y2="181.57" gradientTransform="translate(35.31 192.28) rotate(-90)" gradientUnits="userSpaceOnUse"><stop offset=".4" stop-color="#4b7c59"/><stop offset=".46" stop-color="#53815f"/><stop offset=".56" stop-color="#6b9172"/><stop offset=".68" stop-color="#92aa90"/><stop offset=".82" stop-color="#c8cdba"/><stop offset=".92" stop-color="#f0e8da"/></linearGradient><linearGradient id="c" x1="91.33" y1="122.31" x2="51.47" y2="162.85" gradientTransform="translate(35.31 192.28) rotate(-90)" gradientUnits="userSpaceOnUse"><stop offset=".4" stop-color="#4b7c59"/><stop offset=".46" stop-color="#53815f"/><stop offset=".56" stop-color="#6b9172"/><stop offset=".68" stop-color="#92aa90"/><stop offset=".82" stop-color="#c8cdba"/><stop offset=".92" stop-color="#f0e8da"/></linearGradient><linearGradient id="d" x1="88.89" y1="82.94" x2="10.37" y2="91.58" gradientUnits="userSpaceOnUse"><stop offset=".4" stop-color="#4b7c59"/><stop offset=".46" stop-color="#53815f"/><stop offset=".56" stop-color="#6b9172"/><stop offset=".68" stop-color="#92aa90"/><stop offset=".82" stop-color="#c8cdba"/><stop offset=".92" stop-color="#f0e8da"/></linearGradient><linearGradient id="e" x1="34.1" y1="95.72" x2="41.69" y2="95.72" xlink:href="#d"/><linearGradient id="f" x1="34.1" y1="80.42" x2="41.69" y2="80.42" xlink:href="#d"/><linearGradient id="g" x1="50.97" y1="79.15" x2="58.56" y2="79.15" xlink:href="#d"/><linearGradient id="h" x1="50.97" y1="95.21" x2="58.56" y2="95.21" xlink:href="#d"/><linearGradient id="i" x1="21.34" y1="86.41" x2="80.59" y2="86.41" xlink:href="#d"/><radialGradient id="j" cx="114.92" cy="88.64" fx="114.92" fy="88.64" r="75.23" gradientTransform="translate(45.21 192.28) rotate(-90) scale(1 .89)" gradientUnits="userSpaceOnUse"><stop offset=".49" stop-color="#d34f27"/><stop offset=".55" stop-color="#d4562f"/><stop offset=".64" stop-color="#d86a47"/><stop offset=".75" stop-color="#de8c6e"/><stop offset=".88" stop-color="#e7b9a4"/><stop offset="1" stop-color="#f0e8da"/></radialGradient></defs><path class="n" d="M181.21,117.05c2.94,2.72,30.29,12.16,45.14,16.31-3.62-4.63-7.24-9.26-10.85-13.89-2.87-3.67-5.75-7.36-9.14-10.55-3.88-3.65-8.36-6.61-13.05-9.14-7.05-3.8-14.65-6.68-22.57-7.94-3.91-.62-8.33-.7-11.33,1.86-.85.72-1.57,1.72-1.55,2.83.02,1.26.95,2.3,1.85,3.19,6.51,6.53,13.74,12.35,21.51,17.32"/><path class="m" d="M180.33,117.93c1.24,1.11,2.91,1.76,4.4,2.43,2.73,1.21,5.51,2.29,8.3,3.34,7.11,2.67,14.31,5.11,21.54,7.41,3.8,1.21,7.61,2.38,11.46,3.46,1.31.37,1.93-1.17,1.22-2.09-5.32-6.81-10.43-13.86-16.11-20.38-5.36-6.14-11.95-10.79-19.2-14.45s-15.07-6.52-23.11-7.3c-3.33-.32-6.99-.03-9.75,2.04-1.27.96-2.39,2.31-2.45,3.97-.07,1.81,1.16,3.21,2.36,4.42,6.53,6.55,13.82,12.35,21.6,17.35,1.36.87,2.61-1.29,1.26-2.16-6.4-4.11-12.43-8.78-17.99-13.97-1.28-1.2-2.63-2.39-3.79-3.71-.53-.6-1.08-1.3-.9-2.15s1.08-1.58,1.79-2.03c2.64-1.7,6.1-1.55,9.08-1.12,7.49,1.08,14.75,3.75,21.45,7.23s12.52,7.6,17.44,13.14c2.86,3.22,5.46,6.68,8.11,10.08,2.81,3.6,5.63,7.2,8.44,10.81l1.22-2.09c-6.93-1.94-13.79-4.15-20.61-6.47-6.38-2.17-12.79-4.38-18.99-7.02-1.12-.48-2.23-.97-3.32-1.52-.37-.19-.73-.38-1.08-.59-.15-.09-.3-.19-.45-.29-.29-.19.08.09-.14-.11-1.2-1.07-2.97.69-1.77,1.77h0Z"/><path class="o" d="M164.52,113.01c.44,4.92,4.08,8.89,7.66,12.3,10.03,9.57,21.33,18.31,28.1,30.41-.89-10.33-3.03-20.69-7.81-29.88s-12.43-17.16-22.08-20.93c-1.31-.51-2.8-.95-4.11-.42-2.59,1.05-2.51,4.71-1.89,7.43"/><path class="m" d="M163.27,113.01c.79,7.4,7.17,12.46,12.3,17.16,5.53,5.07,11.18,10.05,16.13,15.71,2.84,3.24,5.38,6.71,7.5,10.47.58,1.03,2.44.64,2.33-.63-1-11.4-3.43-22.94-9.3-32.9-4.97-8.43-12.56-15.92-21.9-19.27-2.48-.89-5.4-.72-6.78,1.83-1.11,2.07-.84,4.66-.36,6.87.35,1.57,2.76.91,2.41-.66s-.71-3.76.24-5.19c1.32-1.98,4.46-.24,6.05.5,3.94,1.85,7.51,4.41,10.61,7.45,6.78,6.65,11.11,15.28,13.61,24.37,1.53,5.56,2.41,11.26,2.91,17l2.33-.63c-7.25-12.84-19.19-21.57-29.46-31.79-2.83-2.82-5.69-6.16-6.13-10.29-.17-1.58-2.67-1.6-2.5,0h0Z"/><path class="r" d="M67.87,63.98c-6.27-3.46-13.01-6.4-20.15-7.01-7.14-.61-14.77,1.4-19.71,6.59-3.75,3.94-5.62,9.27-8.62,13.81-3.23,4.87-17.44,12.46-18.15,10.69,7.27,1.42,13.92,5.82,18.05,11.97,2.36,3.5,3.94,7.54,6.7,10.73,4.29,4.96,11,7.29,17.55,7.65,6.55.36,13.05-1.03,19.46-2.42,4.19-7.18,8.37-14.36,12.56-21.54,3.16-5.43,6.4-12.06,3.58-17.67-1.52-3.03-8.28-11.22-11.27-12.81"/><path class="m" d="M68.5,62.9c-11.01-6.05-24.83-10.68-36.64-3.91-5.66,3.24-8.45,8.73-11.47,14.24-1.1,2.02-2.2,3.94-3.9,5.51-1.57,1.44-3.32,2.67-5.12,3.81-2.03,1.29-4.13,2.48-6.32,3.47-.79.36-1.6.69-2.44.92-.27.07-.63.13-.65.14-.3.13.14-.06.35.36l-1.41,1.84c4.31.87,8.38,2.72,11.81,5.47,3.71,2.97,6.1,6.74,8.38,10.85s4.8,7.6,8.77,10.07c3.71,2.3,8.01,3.49,12.32,3.91,5.34.52,10.73-.26,15.97-1.28,1.26-.25,2.52-.51,3.77-.78.54-.12,1.23-.13,1.71-.43.58-.36.87-1.17,1.2-1.74,1.42-2.44,2.85-4.88,4.27-7.32,2.8-4.79,5.68-9.55,8.38-14.4,2.22-4,4.42-8.65,3.92-13.36-.41-3.87-2.85-6.89-5.22-9.82-2.16-2.66-4.63-5.85-7.68-7.54-1.41-.78-2.67,1.38-1.26,2.16,2.25,1.24,4.07,3.51,5.72,5.42,1.77,2.04,3.58,4.19,4.9,6.56,2.03,3.67.93,8.03-.68,11.64-1.86,4.19-4.42,8.09-6.72,12.04-2.85,4.88-5.69,9.76-8.54,14.65l.75-.57c-9.83,2.12-20.82,4.43-30.21-.54-4.35-2.3-6.97-5.9-9.3-10.11s-4.72-7.91-8.37-10.93-8.35-5.37-13.21-6.36c-1.09-.22-1.92.84-1.41,1.84,1.29,2.55,6.79-.78,8.24-1.53,3.8-1.98,7.74-4.37,10.71-7.48,1.81-1.9,3-4.34,4.22-6.63,1.48-2.77,2.93-5.62,5.01-7.99,4.16-4.75,10.49-6.88,16.68-6.93,7.91-.06,15.41,3.2,22.22,6.94,1.41.78,2.67-1.38,1.26-2.16h0Z"/><path class="p" d="M41.69,88.47c-.62,2.49-1.93,4.75-3.22,6.97-1.46,2.51-2.91,5.02-4.37,7.53"/><path class="m" d="M40.48,88.14c-.65,2.5-1.95,4.71-3.23,6.92-1.41,2.43-2.82,4.86-4.23,7.29-.81,1.39,1.35,2.65,2.16,1.26,1.46-2.51,2.91-5.02,4.37-7.53,1.34-2.31,2.67-4.67,3.34-7.27.4-1.56-2.01-2.22-2.41-.66h0Z"/><path class="q" d="M41.69,87.67c-.62-2.49-1.93-4.75-3.22-6.97-1.46-2.51-2.91-5.02-4.37-7.53"/><path class="m" d="M42.89,87.34c-.68-2.61-2-4.96-3.34-7.27-1.46-2.51-2.91-5.02-4.37-7.53-.81-1.39-2.97-.13-2.16,1.26,1.41,2.43,2.82,4.86,4.23,7.29,1.28,2.21,2.58,4.42,3.23,6.92.4,1.56,2.82.9,2.41-.66h0Z"/><path class="v" d="M58.56,86.41c-.62-2.49-1.93-4.75-3.22-6.97-1.46-2.51-2.91-5.02-4.37-7.53"/><path class="m" d="M59.76,86.07c-.68-2.61-2-4.96-3.34-7.27-1.46-2.51-2.91-5.02-4.37-7.53-.81-1.39-2.97-.13-2.16,1.26,1.41,2.43,2.82,4.86,4.23,7.29,1.28,2.21,2.58,4.42,3.23,6.92.4,1.56,2.82.9,2.41-.66h0Z"/><path class="u" d="M58.56,87.96c-.62,2.49-1.93,4.75-3.22,6.97-1.46,2.51-2.91,5.02-4.37,7.53"/><path class="m" d="M57.35,87.62c-.65,2.5-1.95,4.71-3.23,6.92-1.41,2.43-2.82,4.86-4.23,7.29-.81,1.39,1.35,2.65,2.16,1.26,1.46-2.51,2.91-5.02,4.37-7.53,1.34-2.31,2.67-4.67,3.34-7.27.4-1.56-2.01-2.22-2.41-.66h0Z"/><path class="t" d="M21.34,88.53c19.81-.31,39.6-1.73,59.25-4.24"/><path class="m" d="M21.34,89.78c19.81-.32,39.59-1.74,59.25-4.24,1.57-.2,1.59-2.7,0-2.5-19.65,2.5-39.44,3.91-59.25,4.24-1.61.03-1.61,2.53,0,2.5h0Z"/><path class="s" d="M158.05,9.27c4.35,6.09,5.66,13.77,6.85,21.15.35,2.17.7,4.41.17,6.54-1.51,5.99-8.69,8.08-14.23,10.85-5.35,2.65-9.94,6.8-13.11,11.86,5.32-2.83,10.64-5.66,15.96-8.49,4.92-2.61,9.98-5.27,15.49-5.99,5.53-.73,11.7.87,14.99,5.37,2.41,3.3,3.02,7.75,5.88,10.67,2.13,2.19,5.31,3.3,7.01,5.83,2.27,3.4,1.04,7.99-.75,11.66-1.78,3.67-4.13,7.38-3.88,11.46.14,2.58,1.35,5.09,1.15,7.67-.26,3.4-2.97,6.23-6.07,7.63-3.11,1.4-6.6,1.65-10.02,1.88-3.56.23-7.33.42-10.46-1.3-2.35-1.28-4.04-3.5-5.98-5.35-5.15-4.84-15.26-8.42-22.25-7.4,12.25,2.49,25.91,11.94,31.76,22.98,3,5.63,3.92,14.04-1.65,17.15-2.02,1.13-4.48,1.23-6.5,2.34-5.76,3.14-5.37,12.29-10.74,16.06-6.84,4.81-16.12-2.76-24.37-1.36-2.67.45-5.13,1.87-7.82,2.24-6.82.96-13.04-5.29-14.34-12.08-1.3-6.77,1.06-13.69,3.87-19.99,2.8-6.31,4.78-13.22,5.55-20.09-3.48,11.09-7.81,21.9-12.96,32.31-1.76,3.56-4.32,7.55-8.29,7.69-3.74.14-6.51-3.19-9.2-5.8-4.67-4.54-10.77-7.58-17.21-8.55-2.26-.35-4.85-.61-6.19-2.48-.9-1.26-.93-2.91-1.06-4.44-.49-6.02-2.8-11.89-6.55-16.62-2.01-2.54-4.58-5.8-2.98-8.62.6-1.05,1.67-1.74,2.72-2.34,8.21-4.72,17.61-7.4,27.07-7.69,5.35-.17,11.3.21,15.35-3.28-9.26.78-18.65.27-27.79-1.48-4.37-.84-9.3-2.48-10.9-6.64-3.09-7.99,9.03-16.35,5.42-24.13-.88-1.92-2.7-3.62-2.43-5.72.31-2.34,2.96-3.44,5-4.61,4.48-2.58,7.27-7.24,10.95-10.85,3.7-3.59,9.54-6.18,13.91-3.44,1.83,1.14,3.05,3.02,4.22,4.85,6.05,9.51,10.29,16.18,16.35,25.7-5.27-12.83-4.92-24.33-2.37-37.97,1.15-6.14,4.53-13.31,10.77-13.55,4.49-.17,8.59,3.53,13.01,2.82,2.63-.42,4.74-2.32,7.16-3.41,6.81-3.09,15.16.86,19.5,6.94Z"/><path class="m" d="M156.97,9.9c2.63,3.75,4.14,8.04,5.17,12.47.51,2.22.91,4.46,1.28,6.71.41,2.49,1.07,5.21.4,7.71-.92,3.4-4.09,5.37-7.04,6.86-3.41,1.73-7,3.04-10.19,5.18-4,2.67-7.37,6.16-9.94,10.22-.7,1.1.65,2.27,1.71,1.71,5.72-3.04,11.43-6.1,17.16-9.12,5.07-2.67,10.53-5.4,16.4-5.36,4.93.04,9.75,2.07,12.18,6.54,1.22,2.25,1.95,4.74,3.27,6.94s3.07,3.57,5.09,4.93,4.08,2.88,4.49,5.54-.59,5.49-1.74,7.87c-1.21,2.52-2.66,4.96-3.46,7.66s-.59,5.38.06,8.17.82,5.14-.97,7.44c-1.64,2.1-4.07,3.27-6.61,3.9-2.89.71-5.94.85-8.9.97s-5.88-.03-8.36-1.66-4.04-4.01-6.26-5.78c-2.03-1.62-4.29-2.92-6.67-3.96-4.85-2.13-10.28-3.43-15.58-2.71-1.23.17-1.15,2.17,0,2.41,11.28,2.35,22.38,9.52,28.95,19.02,2.78,4.01,5.15,9.22,4.06,14.22-.53,2.44-2.01,4.27-4.38,5.13-2.66.96-5.35,1.32-7.43,3.42-3.38,3.39-3.98,8.47-6.61,12.34-3.29,4.83-8.93,3.64-13.76,2.31-2.69-.74-5.37-1.53-8.15-1.81-3.1-.31-5.79.5-8.69,1.5s-5.6,1.33-8.4.01c-2.5-1.17-4.54-3.23-5.92-5.6-3.9-6.67-1.74-14.84.98-21.52,1.52-3.74,3.15-7.38,4.3-11.26s1.92-7.74,2.39-11.71c.17-1.45-2.05-1.62-2.46-.33-3.54,11.25-7.78,22.53-13.32,32.96-1.04,1.96-2.3,4.05-4.2,5.28-2.01,1.29-4.23.94-6.15-.33s-3.54-3.21-5.28-4.82c-1.87-1.72-3.95-3.24-6.17-4.49s-4.59-2.25-7.03-2.95-4.75-.8-7.08-1.44c-1-.28-2-.72-2.54-1.65-.67-1.15-.6-2.63-.72-3.9-.26-2.63-.81-5.23-1.69-7.72s-2.05-4.87-3.51-7.07-3.46-4.06-4.43-6.49c-1.13-2.83,1-4.13,3.21-5.34,2.5-1.37,5.1-2.56,7.79-3.54,5.93-2.16,12.15-3.31,18.45-3.46,5.37-.13,11.1,0,15.47-3.63.81-.68.17-2.22-.88-2.13-5.92.48-11.87.47-17.78-.07-2.93-.27-5.84-.66-8.73-1.19-2.16-.39-4.35-.85-6.36-1.75-3.67-1.65-5.81-4.78-4.78-8.83.91-3.57,3.17-6.64,4.69-9.96s2.32-6.69.69-10.01c-.85-1.74-3.24-3.99-1.63-5.94,1.29-1.55,3.54-2.22,5.16-3.37,3.96-2.83,6.53-7,10.01-10.31,3.03-2.88,8.23-5.65,12.26-3.12,2.42,1.52,3.84,4.52,5.33,6.86,1.67,2.63,3.34,5.26,5.02,7.89,3.26,5.12,6.51,10.24,9.77,15.36.72,1.13,2.84.41,2.28-.96-2.74-6.74-4.15-13.82-4.12-21.1.01-3.59.33-7.18.84-10.74.46-3.25.93-6.56,2.03-9.66.86-2.44,2.13-4.88,4.1-6.62,2.26-1.99,5.01-2.12,7.79-1.25s5.7,2.5,8.82,2.33c3.45-.19,5.84-2.61,8.91-3.81,6.4-2.51,13.65,1.47,17.43,6.64.94,1.29,3.11.04,2.16-1.26C155.43,3.57,149.28-.38,142.81.03c-3.52.22-6.07,1.98-9.09,3.57-3.54,1.86-6.68.36-10.13-.89-2.96-1.07-6.03-1.5-8.95-.1-2.56,1.23-4.44,3.61-5.72,6.09-1.44,2.78-2.22,5.77-2.76,8.83-.68,3.85-1.22,7.73-1.46,11.64-.53,8.78.77,17.44,4.08,25.6l2.28-.96c-3.18-5-6.36-10-9.54-15-1.58-2.48-3.16-4.97-4.74-7.45-1.49-2.34-2.86-4.92-4.79-6.94-3.6-3.78-8.88-3.43-13.17-1.08-4.61,2.52-7.38,7.03-11,10.66-1.79,1.8-3.78,2.96-5.93,4.24-1.83,1.09-3.57,2.62-3.61,4.92-.04,2.54,2.06,4.22,2.81,6.48.58,1.74.28,3.53-.31,5.22-2.31,6.68-10.23,15.1-3.05,21.63,4.15,3.77,10.61,4.36,15.91,5.04,7.17.92,14.41,1.08,21.61.49l-.88-2.13c-4.19,3.48-10.29,2.71-15.35,2.95-6.02.29-12.01,1.49-17.67,3.57-2.74,1.01-5.42,2.21-7.98,3.61-2.15,1.17-4.49,2.48-4.93,5.11s1.2,5.1,2.71,7.09c1.75,2.3,3.39,4.56,4.61,7.19s2.01,5.34,2.43,8.14c.38,2.54.07,5.44,1.95,7.47,1.64,1.77,4.17,2.05,6.42,2.41,2.7.43,5.36,1.17,7.86,2.29s4.98,2.64,7.13,4.44c2,1.68,3.67,3.71,5.72,5.32,1.83,1.44,3.98,2.52,6.37,2.32s4.36-1.55,5.86-3.31c1.9-2.23,3.14-4.9,4.4-7.52,1.56-3.25,3.04-6.55,4.44-9.87,2.79-6.61,5.26-13.35,7.41-20.19l-2.46-.33c-.46,3.89-1.29,7.74-2.43,11.49s-2.71,7.22-4.17,10.82c-2.62,6.44-4.62,14.11-1.97,20.87,2.07,5.27,6.77,9.91,12.64,10.31,3.51.24,6.5-1.61,9.83-2.28,2.86-.58,5.81.08,8.58.81,5.25,1.38,11.54,3.83,16.51.34,4.31-3.02,5.06-8.48,7.57-12.76.58-1,1.29-1.95,2.2-2.67,1.2-.95,2.68-1.31,4.12-1.72,2.76-.77,5.23-1.98,6.66-4.58,2.52-4.56,1.26-10.54-.92-14.97-3.02-6.14-8.12-11.23-13.58-15.24s-12.28-7.43-19.22-8.87v2.41c4.98-.68,10.39.85,14.84,3,2.18,1.05,4.3,2.32,6.08,3.97,2.03,1.88,3.74,4.15,6.18,5.55,2.63,1.51,5.71,1.78,8.68,1.7s6.15-.27,9.13-.88c5.03-1.02,10.39-4.39,10.79-10.02.22-3.04-1.36-5.88-1.15-8.92s1.8-5.78,3.14-8.43c2.35-4.66,4.44-10.76.45-15.17-1.74-1.92-4.22-2.93-6.08-4.71-1.97-1.88-2.86-4.54-3.93-6.97s-2.38-4.61-4.44-6.27c-1.95-1.57-4.29-2.6-6.73-3.13-6.47-1.4-12.82.76-18.6,3.58-6.9,3.38-13.61,7.17-20.39,10.77l1.71,1.71c2.45-3.86,5.7-7.17,9.54-9.65,3.34-2.15,7.11-3.44,10.59-5.32,3.09-1.67,6.01-3.97,7.15-7.42.79-2.39.47-4.92.09-7.36s-.78-4.8-1.27-7.18c-1.08-5.2-2.71-10.35-5.78-14.73-.92-1.31-3.09-.06-2.16,1.26Z"/><circle class="k" cx="120.67" cy="77.36" r="23.5"/><circle class="l" cx="120.67" cy="77.36" r="12.42"/><path class="m" d="M101.54,94.32c-2.93,2.57-5.85,5.14-8.78,7.7-.51.45-.46,1.31,0,1.77.5.5,1.26.45,1.77,0,2.93-2.57,5.85-5.14,8.78-7.7.51-.45.46-1.31,0-1.77-.5-.5-1.26-.45-1.77,0h0Z"/><path class="m" d="M101.08,60.88c-3.14-2.3-6.28-4.6-9.42-6.9-.55-.4-1.39-.09-1.71.45-.37.63-.1,1.31.45,1.71,3.14,2.3,6.28,4.6,9.42,6.9.55.4,1.39.09,1.71-.45.37-.63.1-1.31-.45-1.71h0Z"/><path class="m" d="M129.99,42.58c-1.36,3.65-2.72,7.3-4.08,10.95-.24.63.26,1.37.87,1.54.7.19,1.3-.24,1.54-.87,1.36-3.65,2.72-7.3,4.08-10.95.24-.63-.26-1.37-.87-1.54-.7-.19-1.3.24-1.54.87h0Z"/><path class="m" d="M157.86,74.8c-3.89.03-7.79.06-11.68.09-1.61.01-1.61,2.51,0,2.5,3.89-.03,7.79-.06,11.68-.09,1.61-.01,1.61-2.51,0-2.5h0Z"/><path class="m" d="M127.49,101.49l5.25,10.43c.3.6,1.15.77,1.71.45.61-.36.75-1.1.45-1.71-1.75-3.48-3.5-6.96-5.25-10.43-.3-.6-1.15-.77-1.71-.45-.61.36-.75,1.1-.45,1.71h0Z"/></svg>